<?xml version="1.0" encoding="utf-8"?><svg xmlns="http://www.w3.org/2000/svg" width="226" height="61" viewBox="0 0 226 61"><g><g><path fill="#f04f23" d="M58.974 38.15A15.179 15.179 0 0 1 61 45.75C61 54.172 54.172 61 45.75 61c-2.994 0-5.788-.863-8.143-2.355l-.012-.006-.002-.002-4.121-2.382h-.013a5.548 5.548 0 0 0-2.959-.846c-1.005 0-1.95.265-2.765.73l-.077.045-.116.071h-.034l-3.742 2.148A15.179 15.179 0 0 1 15.25 61C6.828 61 0 54.172 0 45.75c0-2.767.736-5.362 2.025-7.599l-.039-.035 17.12-31.338A12.956 12.956 0 0 1 30.5 0c4.918 0 9.198 2.74 11.395 6.778l17.118 31.338zM29.97 41.01L48 48.006 29.97 14 12 48.005l15.775 6.141L29.97 55z"/></g><g><path fill="#002049" d="M225.779 18.664v5.093h-13.508v6.2h12.179v5.093h-12.179v6.643h13.508v5.093h-19.265V18.664zm-42.515 0h5.979v23.029h13.064v5.093h-19.043zm-19.707 23.25h5.536c2.657 0 4.207-1.328 4.207-3.543 0-2.214-1.55-3.542-4.207-3.542h-5.536zm4.65-11.735c2.879 0 4.207-1.108 4.207-3.322s-1.55-3.321-4.207-3.321h-4.871v6.643zm10.85 8.635c0 5.315-3.543 7.972-9.521 7.972H157.8V18.664h10.85c5.979 0 9.521 2.657 9.521 7.75 0 3.1-1.55 5.315-3.764 5.979 2.657.664 4.65 3.321 4.65 6.421zm-41.85-3.764h6.864l-3.542-9.3zm6.422-16.386l10.85 28.122H148.5l-2.436-6.865h-10.628l-2.657 6.865H126.8l10.85-28.343h5.979zm-34.765 12.843h5.536c2.879 0 4.429-1.55 4.429-3.986 0-2.435-1.55-3.985-4.429-3.985h-5.536zm0 15.279h-5.757V18.664h11.736c5.978 0 9.964 3.1 9.964 9.079 0 4.428-2.436 7.307-6.421 8.414l7.528 11.072h-6.643L112.186 36.6h-3.322zM82.293 35.05h6.864l-3.543-9.3zm6.421-16.386l10.85 28.122h-5.978L91.15 39.92H80.521l-2.435 6.865h-5.979l10.85-28.342h5.757z"/></g></g></svg>